# MagicaVoxel @ Ephtracy

# group
o 

# material
mtllib Basic_Prison_Door.mtl
usemtl palette

# normals
vn -1 0 0
vn 1 0 0
vn 0 0 1
vn 0 0 -1
vn 0 -1 0
vn 0 1 0

# texcoords
vt 0.958984 0.5
vt 0.978516 0.5
vt 0.990234 0.5
vt 0.994141 0.5

# verts
v -4 0 0.9
v -4 0 -0.9
v -4 6 0.9
v -4 6 -0.9
v -3.1 0.5 0.2
v -3.1 0.5 -0.2
v -3.1 5.4 0.2
v -3.1 5.4 -0.2
v -3 0.5 0.3
v -3 0.5 0.2
v -3 0.5 -0.2
v -3 0.5 -0.3
v -3 5.4 0.3
v -3 5.4 0.2
v -3 5.4 -0.2
v -3 5.4 -0.3
v -2.7 0.5 0.1
v -2.7 0.5 -0.1
v -2.7 5.4 0.1
v -2.7 5.4 -0.1
v -2 0.5 0.2
v -2 0.5 -0.2
v -2 5.4 0.2
v -2 5.4 -0.2
v -1.9 0.5 0.3
v -1.9 0.5 0.2
v -1.9 0.5 -0.2
v -1.9 0.5 -0.3
v -1.9 5.4 0.3
v -1.9 5.4 0.2
v -1.9 5.4 -0.2
v -1.9 5.4 -0.3
v -1.6 0.5 0.1
v -1.6 0.5 -0.1
v -1.6 5.4 0.1
v -1.6 5.4 -0.1
v -0.9 0.5 0.2
v -0.9 0.5 -0.2
v -0.9 5.4 0.2
v -0.9 5.4 -0.2
v -0.8 0.5 0.3
v -0.8 0.5 0.2
v -0.8 0.5 -0.2
v -0.8 0.5 -0.3
v -0.8 5.4 0.3
v -0.8 5.4 0.2
v -0.8 5.4 -0.2
v -0.8 5.4 -0.3
v -0.5 0.5 0.1
v -0.5 0.5 -0.1
v -0.5 5.4 0.1
v -0.5 5.4 -0.1
v 0.2 0.5 0.2
v 0.2 0.5 -0.2
v 0.2 5.4 0.2
v 0.2 5.4 -0.2
v 0.3 0.5 0.3
v 0.3 0.5 0.2
v 0.3 0.5 -0.2
v 0.3 0.5 -0.3
v 0.3 5.4 0.3
v 0.3 5.4 0.2
v 0.3 5.4 -0.2
v 0.3 5.4 -0.3
v 0.6 0.5 0.1
v 0.6 0.5 -0.1
v 0.6 5.4 0.1
v 0.6 5.4 -0.1
v 1.3 0.5 0.2
v 1.3 0.5 -0.2
v 1.3 5.4 0.2
v 1.3 5.4 -0.2
v 1.4 0.5 0.3
v 1.4 0.5 0.2
v 1.4 0.5 -0.2
v 1.4 0.5 -0.3
v 1.4 5.4 0.3
v 1.4 5.4 0.2
v 1.4 5.4 -0.2
v 1.4 5.4 -0.3
v 1.7 0.5 0.1
v 1.7 0.5 -0.1
v 1.7 5.4 0.1
v 1.7 5.4 -0.1
v 2.4 0.5 0.2
v 2.4 0.5 -0.2
v 2.4 5.4 0.2
v 2.4 5.4 -0.2
v 2.5 0.5 0.3
v 2.5 0.5 0.2
v 2.5 0.5 -0.2
v 2.5 0.5 -0.3
v 2.5 5.4 0.3
v 2.5 5.4 0.2
v 2.5 5.4 -0.2
v 2.5 5.4 -0.3
v 2.8 0.5 0.1
v 2.8 0.5 -0.1
v 2.8 5.4 0.1
v 2.8 5.4 -0.1
v 3.5 0.5 0.9
v 3.5 0.5 -0.9
v 3.5 5.4 0.9
v 3.5 5.4 -0.9
v -3.5 0.5 0.9
v -3.5 0.5 -0.9
v -3.5 5.4 0.9
v -3.5 5.4 -0.9
v -2.9 0.5 0.1
v -2.9 0.5 -0.1
v -2.9 5.4 0.1
v -2.9 5.4 -0.1
v -2.6 0.5 0.3
v -2.6 0.5 0.2
v -2.6 0.5 -0.2
v -2.6 0.5 -0.3
v -2.6 5.4 0.3
v -2.6 5.4 0.2
v -2.6 5.4 -0.2
v -2.6 5.4 -0.3
v -2.5 0.5 0.2
v -2.5 0.5 -0.2
v -2.5 5.4 0.2
v -2.5 5.4 -0.2
v -1.8 0.5 0.1
v -1.8 0.5 -0.1
v -1.8 5.4 0.1
v -1.8 5.4 -0.1
v -1.5 0.5 0.3
v -1.5 0.5 0.2
v -1.5 0.5 -0.2
v -1.5 0.5 -0.3
v -1.5 5.4 0.3
v -1.5 5.4 0.2
v -1.5 5.4 -0.2
v -1.5 5.4 -0.3
v -1.4 0.5 0.2
v -1.4 0.5 -0.2
v -1.4 5.4 0.2
v -1.4 5.4 -0.2
v -0.7 0.5 0.1
v -0.7 0.5 -0.1
v -0.7 5.4 0.1
v -0.7 5.4 -0.1
v -0.4 0.5 0.3
v -0.4 0.5 0.2
v -0.4 0.5 -0.2
v -0.4 0.5 -0.3
v -0.4 5.4 0.3
v -0.4 5.4 0.2
v -0.4 5.4 -0.2
v -0.4 5.4 -0.3
v -0.3 0.5 0.2
v -0.3 0.5 -0.2
v -0.3 5.4 0.2
v -0.3 5.4 -0.2
v 0.4 0.5 0.1
v 0.4 0.5 -0.1
v 0.4 5.4 0.1
v 0.4 5.4 -0.1
v 0.7 0.5 0.3
v 0.7 0.5 0.2
v 0.7 0.5 -0.2
v 0.7 0.5 -0.3
v 0.7 5.4 0.3
v 0.7 5.4 0.2
v 0.7 5.4 -0.2
v 0.7 5.4 -0.3
v 0.8 0.5 0.2
v 0.8 0.5 -0.2
v 0.8 5.4 0.2
v 0.8 5.4 -0.2
v 1.5 0.5 0.1
v 1.5 0.5 -0.1
v 1.5 5.4 0.1
v 1.5 5.4 -0.1
v 1.8 0.5 0.3
v 1.8 0.5 0.2
v 1.8 0.5 -0.2
v 1.8 0.5 -0.3
v 1.8 5.4 0.3
v 1.8 5.4 0.2
v 1.8 5.4 -0.2
v 1.8 5.4 -0.3
v 1.9 0.5 0.2
v 1.9 0.5 -0.2
v 1.9 5.4 0.2
v 1.9 5.4 -0.2
v 2.6 0.5 0.1
v 2.6 0.5 -0.1
v 2.6 5.4 0.1
v 2.6 5.4 -0.1
v 2.9 0.5 0.3
v 2.9 0.5 0.2
v 2.9 0.5 -0.2
v 2.9 0.5 -0.3
v 2.9 5.4 0.3
v 2.9 5.4 0.2
v 2.9 5.4 -0.2
v 2.9 5.4 -0.3
v 3 0.5 0.2
v 3 0.5 -0.2
v 3 5.4 0.2
v 3 5.4 -0.2
v 4 0 0.9
v 4 0 -0.9
v 4 6 0.9
v 4 6 -0.9
v -4 0 0.9
v -4 6 0.9
v -3.5 0.5 0.9
v -3.5 5.4 0.9
v 3.5 0.5 0.9
v 3.5 5.4 0.9
v 4 0 0.9
v 4 6 0.9
v -3 0.5 0.3
v -3 5.4 0.3
v -2.6 0.5 0.3
v -2.6 5.4 0.3
v -1.9 0.5 0.3
v -1.9 5.4 0.3
v -1.5 0.5 0.3
v -1.5 5.4 0.3
v -0.8 0.5 0.3
v -0.8 5.4 0.3
v -0.4 0.5 0.3
v -0.4 5.4 0.3
v 0.3 0.5 0.3
v 0.3 5.4 0.3
v 0.7 0.5 0.3
v 0.7 5.4 0.3
v 1.4 0.5 0.3
v 1.4 5.4 0.3
v 1.8 0.5 0.3
v 1.8 5.4 0.3
v 2.5 0.5 0.3
v 2.5 5.4 0.3
v 2.9 0.5 0.3
v 2.9 5.4 0.3
v -3.1 0.5 0.2
v -3.1 5.4 0.2
v -3 0.5 0.2
v -3 5.4 0.2
v -2.6 0.5 0.2
v -2.6 5.4 0.2
v -2.5 0.5 0.2
v -2.5 5.4 0.2
v -2 0.5 0.2
v -2 5.4 0.2
v -1.9 0.5 0.2
v -1.9 5.4 0.2
v -1.5 0.5 0.2
v -1.5 5.4 0.2
v -1.4 0.5 0.2
v -1.4 5.4 0.2
v -0.9 0.5 0.2
v -0.9 5.4 0.2
v -0.8 0.5 0.2
v -0.8 5.4 0.2
v -0.4 0.5 0.2
v -0.4 5.4 0.2
v -0.3 0.5 0.2
v -0.3 5.4 0.2
v 0.2 0.5 0.2
v 0.2 5.4 0.2
v 0.3 0.5 0.2
v 0.3 5.4 0.2
v 0.7 0.5 0.2
v 0.7 5.4 0.2
v 0.8 0.5 0.2
v 0.8 5.4 0.2
v 1.3 0.5 0.2
v 1.3 5.4 0.2
v 1.4 0.5 0.2
v 1.4 5.4 0.2
v 1.8 0.5 0.2
v 1.8 5.4 0.2
v 1.9 0.5 0.2
v 1.9 5.4 0.2
v 2.4 0.5 0.2
v 2.4 5.4 0.2
v 2.5 0.5 0.2
v 2.5 5.4 0.2
v 2.9 0.5 0.2
v 2.9 5.4 0.2
v 3 0.5 0.2
v 3 5.4 0.2
v -2.9 0.5 -0.1
v -2.9 5.4 -0.1
v -2.7 0.5 -0.1
v -2.7 5.4 -0.1
v -1.8 0.5 -0.1
v -1.8 5.4 -0.1
v -1.6 0.5 -0.1
v -1.6 5.4 -0.1
v -0.7 0.5 -0.1
v -0.7 5.4 -0.1
v -0.5 0.5 -0.1
v -0.5 5.4 -0.1
v 0.4 0.5 -0.1
v 0.4 5.4 -0.1
v 0.6 0.5 -0.1
v 0.6 5.4 -0.1
v 1.5 0.5 -0.1
v 1.5 5.4 -0.1
v 1.7 0.5 -0.1
v 1.7 5.4 -0.1
v 2.6 0.5 -0.1
v 2.6 5.4 -0.1
v 2.8 0.5 -0.1
v 2.8 5.4 -0.1
v -2.9 0.5 0.1
v -2.9 5.4 0.1
v -2.7 0.5 0.1
v -2.7 5.4 0.1
v -1.8 0.5 0.1
v -1.8 5.4 0.1
v -1.6 0.5 0.1
v -1.6 5.4 0.1
v -0.7 0.5 0.1
v -0.7 5.4 0.1
v -0.5 0.5 0.1
v -0.5 5.4 0.1
v 0.4 0.5 0.1
v 0.4 5.4 0.1
v 0.6 0.5 0.1
v 0.6 5.4 0.1
v 1.5 0.5 0.1
v 1.5 5.4 0.1
v 1.7 0.5 0.1
v 1.7 5.4 0.1
v 2.6 0.5 0.1
v 2.6 5.4 0.1
v 2.8 0.5 0.1
v 2.8 5.4 0.1
v -3.1 0.5 -0.2
v -3.1 5.4 -0.2
v -3 0.5 -0.2
v -3 5.4 -0.2
v -2.6 0.5 -0.2
v -2.6 5.4 -0.2
v -2.5 0.5 -0.2
v -2.5 5.4 -0.2
v -2 0.5 -0.2
v -2 5.4 -0.2
v -1.9 0.5 -0.2
v -1.9 5.4 -0.2
v -1.5 0.5 -0.2
v -1.5 5.4 -0.2
v -1.4 0.5 -0.2
v -1.4 5.4 -0.2
v -0.9 0.5 -0.2
v -0.9 5.4 -0.2
v -0.8 0.5 -0.2
v -0.8 5.4 -0.2
v -0.4 0.5 -0.2
v -0.4 5.4 -0.2
v -0.3 0.5 -0.2
v -0.3 5.4 -0.2
v 0.2 0.5 -0.2
v 0.2 5.4 -0.2
v 0.3 0.5 -0.2
v 0.3 5.4 -0.2
v 0.7 0.5 -0.2
v 0.7 5.4 -0.2
v 0.8 0.5 -0.2
v 0.8 5.4 -0.2
v 1.3 0.5 -0.2
v 1.3 5.4 -0.2
v 1.4 0.5 -0.2
v 1.4 5.4 -0.2
v 1.8 0.5 -0.2
v 1.8 5.4 -0.2
v 1.9 0.5 -0.2
v 1.9 5.4 -0.2
v 2.4 0.5 -0.2
v 2.4 5.4 -0.2
v 2.5 0.5 -0.2
v 2.5 5.4 -0.2
v 2.9 0.5 -0.2
v 2.9 5.4 -0.2
v 3 0.5 -0.2
v 3 5.4 -0.2
v -3 0.5 -0.3
v -3 5.4 -0.3
v -2.6 0.5 -0.3
v -2.6 5.4 -0.3
v -1.9 0.5 -0.3
v -1.9 5.4 -0.3
v -1.5 0.5 -0.3
v -1.5 5.4 -0.3
v -0.8 0.5 -0.3
v -0.8 5.4 -0.3
v -0.4 0.5 -0.3
v -0.4 5.4 -0.3
v 0.3 0.5 -0.3
v 0.3 5.4 -0.3
v 0.7 0.5 -0.3
v 0.7 5.4 -0.3
v 1.4 0.5 -0.3
v 1.4 5.4 -0.3
v 1.8 0.5 -0.3
v 1.8 5.4 -0.3
v 2.5 0.5 -0.3
v 2.5 5.4 -0.3
v 2.9 0.5 -0.3
v 2.9 5.4 -0.3
v -4 0 -0.9
v -4 6 -0.9
v -3.5 0.5 -0.9
v -3.5 5.4 -0.9
v 3.5 0.5 -0.9
v 3.5 5.4 -0.9
v 4 0 -0.9
v 4 6 -0.9
v -4 0 0.9
v 4 0 0.9
v -4 0 -0.9
v 4 0 -0.9
v -3.5 5.4 0.9
v 3.5 5.4 0.9
v -3 5.4 0.3
v -2.6 5.4 0.3
v -1.9 5.4 0.3
v -1.5 5.4 0.3
v -0.8 5.4 0.3
v -0.4 5.4 0.3
v 0.3 5.4 0.3
v 0.7 5.4 0.3
v 1.4 5.4 0.3
v 1.8 5.4 0.3
v 2.5 5.4 0.3
v 2.9 5.4 0.3
v -3.1 5.4 0.2
v -3 5.4 0.2
v -2.6 5.4 0.2
v -2.5 5.4 0.2
v -2 5.4 0.2
v -1.9 5.4 0.2
v -1.5 5.4 0.2
v -1.4 5.4 0.2
v -0.9 5.4 0.2
v -0.8 5.4 0.2
v -0.4 5.4 0.2
v -0.3 5.4 0.2
v 0.2 5.4 0.2
v 0.3 5.4 0.2
v 0.7 5.4 0.2
v 0.8 5.4 0.2
v 1.3 5.4 0.2
v 1.4 5.4 0.2
v 1.8 5.4 0.2
v 1.9 5.4 0.2
v 2.4 5.4 0.2
v 2.5 5.4 0.2
v 2.9 5.4 0.2
v 3 5.4 0.2
v -2.9 5.4 0.1
v -2.7 5.4 0.1
v -1.8 5.4 0.1
v -1.6 5.4 0.1
v -0.7 5.4 0.1
v -0.5 5.4 0.1
v 0.4 5.4 0.1
v 0.6 5.4 0.1
v 1.5 5.4 0.1
v 1.7 5.4 0.1
v 2.6 5.4 0.1
v 2.8 5.4 0.1
v -2.9 5.4 -0.1
v -2.7 5.4 -0.1
v -1.8 5.4 -0.1
v -1.6 5.4 -0.1
v -0.7 5.4 -0.1
v -0.5 5.4 -0.1
v 0.4 5.4 -0.1
v 0.6 5.4 -0.1
v 1.5 5.4 -0.1
v 1.7 5.4 -0.1
v 2.6 5.4 -0.1
v 2.8 5.4 -0.1
v -3.1 5.4 -0.2
v -3 5.4 -0.2
v -2.6 5.4 -0.2
v -2.5 5.4 -0.2
v -2 5.4 -0.2
v -1.9 5.4 -0.2
v -1.5 5.4 -0.2
v -1.4 5.4 -0.2
v -0.9 5.4 -0.2
v -0.8 5.4 -0.2
v -0.4 5.4 -0.2
v -0.3 5.4 -0.2
v 0.2 5.4 -0.2
v 0.3 5.4 -0.2
v 0.7 5.4 -0.2
v 0.8 5.4 -0.2
v 1.3 5.4 -0.2
v 1.4 5.4 -0.2
v 1.8 5.4 -0.2
v 1.9 5.4 -0.2
v 2.4 5.4 -0.2
v 2.5 5.4 -0.2
v 2.9 5.4 -0.2
v 3 5.4 -0.2
v -3 5.4 -0.3
v -2.6 5.4 -0.3
v -1.9 5.4 -0.3
v -1.5 5.4 -0.3
v -0.8 5.4 -0.3
v -0.4 5.4 -0.3
v 0.3 5.4 -0.3
v 0.7 5.4 -0.3
v 1.4 5.4 -0.3
v 1.8 5.4 -0.3
v 2.5 5.4 -0.3
v 2.9 5.4 -0.3
v -3.5 5.4 -0.9
v 3.5 5.4 -0.9
v -3.5 0.5 0.9
v 3.5 0.5 0.9
v -3 0.5 0.3
v -2.6 0.5 0.3
v -1.9 0.5 0.3
v -1.5 0.5 0.3
v -0.8 0.5 0.3
v -0.4 0.5 0.3
v 0.3 0.5 0.3
v 0.7 0.5 0.3
v 1.4 0.5 0.3
v 1.8 0.5 0.3
v 2.5 0.5 0.3
v 2.9 0.5 0.3
v -3.1 0.5 0.2
v -3 0.5 0.2
v -2.6 0.5 0.2
v -2.5 0.5 0.2
v -2 0.5 0.2
v -1.9 0.5 0.2
v -1.5 0.5 0.2
v -1.4 0.5 0.2
v -0.9 0.5 0.2
v -0.8 0.5 0.2
v -0.4 0.5 0.2
v -0.3 0.5 0.2
v 0.2 0.5 0.2
v 0.3 0.5 0.2
v 0.7 0.5 0.2
v 0.8 0.5 0.2
v 1.3 0.5 0.2
v 1.4 0.5 0.2
v 1.8 0.5 0.2
v 1.9 0.5 0.2
v 2.4 0.5 0.2
v 2.5 0.5 0.2
v 2.9 0.5 0.2
v 3 0.5 0.2
v -2.9 0.5 0.1
v -2.7 0.5 0.1
v -1.8 0.5 0.1
v -1.6 0.5 0.1
v -0.7 0.5 0.1
v -0.5 0.5 0.1
v 0.4 0.5 0.1
v 0.6 0.5 0.1
v 1.5 0.5 0.1
v 1.7 0.5 0.1
v 2.6 0.5 0.1
v 2.8 0.5 0.1
v -2.9 0.5 -0.1
v -2.7 0.5 -0.1
v -1.8 0.5 -0.1
v -1.6 0.5 -0.1
v -0.7 0.5 -0.1
v -0.5 0.5 -0.1
v 0.4 0.5 -0.1
v 0.6 0.5 -0.1
v 1.5 0.5 -0.1
v 1.7 0.5 -0.1
v 2.6 0.5 -0.1
v 2.8 0.5 -0.1
v -3.1 0.5 -0.2
v -3 0.5 -0.2
v -2.6 0.5 -0.2
v -2.5 0.5 -0.2
v -2 0.5 -0.2
v -1.9 0.5 -0.2
v -1.5 0.5 -0.2
v -1.4 0.5 -0.2
v -0.9 0.5 -0.2
v -0.8 0.5 -0.2
v -0.4 0.5 -0.2
v -0.3 0.5 -0.2
v 0.2 0.5 -0.2
v 0.3 0.5 -0.2
v 0.7 0.5 -0.2
v 0.8 0.5 -0.2
v 1.3 0.5 -0.2
v 1.4 0.5 -0.2
v 1.8 0.5 -0.2
v 1.9 0.5 -0.2
v 2.4 0.5 -0.2
v 2.5 0.5 -0.2
v 2.9 0.5 -0.2
v 3 0.5 -0.2
v -3 0.5 -0.3
v -2.6 0.5 -0.3
v -1.9 0.5 -0.3
v -1.5 0.5 -0.3
v -0.8 0.5 -0.3
v -0.4 0.5 -0.3
v 0.3 0.5 -0.3
v 0.7 0.5 -0.3
v 1.4 0.5 -0.3
v 1.8 0.5 -0.3
v 2.5 0.5 -0.3
v 2.9 0.5 -0.3
v -3.5 0.5 -0.9
v 3.5 0.5 -0.9
v -4 6 0.9
v 4 6 0.9
v -4 6 -0.9
v 4 6 -0.9

# faces
f 3/4/1 2/4/1 1/4/1
f 4/4/1 2/4/1 3/4/1
f 7/2/1 6/2/1 5/2/1
f 8/2/1 6/2/1 7/2/1
f 13/2/1 10/2/1 9/2/1
f 14/2/1 10/2/1 13/2/1
f 15/2/1 12/2/1 11/2/1
f 16/2/1 12/2/1 15/2/1
f 19/2/1 18/2/1 17/2/1
f 20/2/1 18/2/1 19/2/1
f 23/2/1 22/2/1 21/2/1
f 24/2/1 22/2/1 23/2/1
f 29/2/1 26/2/1 25/2/1
f 30/2/1 26/2/1 29/2/1
f 31/2/1 28/2/1 27/2/1
f 32/2/1 28/2/1 31/2/1
f 35/2/1 34/2/1 33/2/1
f 36/2/1 34/2/1 35/2/1
f 39/2/1 38/2/1 37/2/1
f 40/2/1 38/2/1 39/2/1
f 45/2/1 42/2/1 41/2/1
f 46/2/1 42/2/1 45/2/1
f 47/2/1 44/2/1 43/2/1
f 48/2/1 44/2/1 47/2/1
f 51/2/1 50/2/1 49/2/1
f 52/2/1 50/2/1 51/2/1
f 55/2/1 54/2/1 53/2/1
f 56/2/1 54/2/1 55/2/1
f 61/2/1 58/2/1 57/2/1
f 62/2/1 58/2/1 61/2/1
f 63/2/1 60/2/1 59/2/1
f 64/2/1 60/2/1 63/2/1
f 67/2/1 66/2/1 65/2/1
f 68/2/1 66/2/1 67/2/1
f 71/2/1 70/2/1 69/2/1
f 72/2/1 70/2/1 71/2/1
f 77/2/1 74/2/1 73/2/1
f 78/2/1 74/2/1 77/2/1
f 79/2/1 76/2/1 75/2/1
f 80/2/1 76/2/1 79/2/1
f 83/2/1 82/2/1 81/2/1
f 84/2/1 82/2/1 83/2/1
f 87/2/1 86/2/1 85/2/1
f 88/2/1 86/2/1 87/2/1
f 93/2/1 90/2/1 89/2/1
f 94/2/1 90/2/1 93/2/1
f 95/2/1 92/2/1 91/2/1
f 96/2/1 92/2/1 95/2/1
f 99/2/1 98/2/1 97/2/1
f 100/2/1 98/2/1 99/2/1
f 103/4/1 102/4/1 101/4/1
f 104/4/1 102/4/1 103/4/1
f 105/4/2 106/4/2 107/4/2
f 107/4/2 106/4/2 108/4/2
f 109/2/2 110/2/2 111/2/2
f 111/2/2 110/2/2 112/2/2
f 113/2/2 114/2/2 117/2/2
f 117/2/2 114/2/2 118/2/2
f 115/2/2 116/2/2 119/2/2
f 119/2/2 116/2/2 120/2/2
f 121/2/2 122/2/2 123/2/2
f 123/2/2 122/2/2 124/2/2
f 125/2/2 126/2/2 127/2/2
f 127/2/2 126/2/2 128/2/2
f 129/2/2 130/2/2 133/2/2
f 133/2/2 130/2/2 134/2/2
f 131/2/2 132/2/2 135/2/2
f 135/2/2 132/2/2 136/2/2
f 137/2/2 138/2/2 139/2/2
f 139/2/2 138/2/2 140/2/2
f 141/2/2 142/2/2 143/2/2
f 143/2/2 142/2/2 144/2/2
f 145/2/2 146/2/2 149/2/2
f 149/2/2 146/2/2 150/2/2
f 147/2/2 148/2/2 151/2/2
f 151/2/2 148/2/2 152/2/2
f 153/2/2 154/2/2 155/2/2
f 155/2/2 154/2/2 156/2/2
f 157/2/2 158/2/2 159/2/2
f 159/2/2 158/2/2 160/2/2
f 161/2/2 162/2/2 165/2/2
f 165/2/2 162/2/2 166/2/2
f 163/2/2 164/2/2 167/2/2
f 167/2/2 164/2/2 168/2/2
f 169/2/2 170/2/2 171/2/2
f 171/2/2 170/2/2 172/2/2
f 173/2/2 174/2/2 175/2/2
f 175/2/2 174/2/2 176/2/2
f 177/2/2 178/2/2 181/2/2
f 181/2/2 178/2/2 182/2/2
f 179/2/2 180/2/2 183/2/2
f 183/2/2 180/2/2 184/2/2
f 185/2/2 186/2/2 187/2/2
f 187/2/2 186/2/2 188/2/2
f 189/2/2 190/2/2 191/2/2
f 191/2/2 190/2/2 192/2/2
f 193/2/2 194/2/2 197/2/2
f 197/2/2 194/2/2 198/2/2
f 195/2/2 196/2/2 199/2/2
f 199/2/2 196/2/2 200/2/2
f 201/2/2 202/2/2 203/2/2
f 203/2/2 202/2/2 204/2/2
f 205/4/2 206/4/2 207/4/2
f 207/4/2 206/4/2 208/4/2
f 211/4/3 210/4/3 209/4/3
f 212/4/3 210/4/3 211/4/3
f 213/4/3 211/4/3 209/4/3
f 214/4/3 210/4/3 212/4/3
f 215/4/3 213/4/3 209/4/3
f 215/4/3 214/4/3 213/4/3
f 216/4/3 210/4/3 214/4/3
f 216/4/3 214/4/3 215/4/3
f 219/2/3 218/2/3 217/2/3
f 220/2/3 218/2/3 219/2/3
f 223/2/3 222/2/3 221/2/3
f 224/2/3 222/2/3 223/2/3
f 227/2/3 226/2/3 225/2/3
f 228/2/3 226/2/3 227/2/3
f 231/2/3 230/2/3 229/2/3
f 232/2/3 230/2/3 231/2/3
f 235/2/3 234/2/3 233/2/3
f 236/2/3 234/2/3 235/2/3
f 239/2/3 238/2/3 237/2/3
f 240/2/3 238/2/3 239/2/3
f 243/2/3 242/2/3 241/2/3
f 244/2/3 242/2/3 243/2/3
f 247/2/3 246/2/3 245/2/3
f 248/2/3 246/2/3 247/2/3
f 251/2/3 250/2/3 249/2/3
f 252/2/3 250/2/3 251/2/3
f 255/2/3 254/2/3 253/2/3
f 256/2/3 254/2/3 255/2/3
f 259/2/3 258/2/3 257/2/3
f 260/2/3 258/2/3 259/2/3
f 263/2/3 262/2/3 261/2/3
f 264/2/3 262/2/3 263/2/3
f 267/2/3 266/2/3 265/2/3
f 268/2/3 266/2/3 267/2/3
f 271/2/3 270/2/3 269/2/3
f 272/2/3 270/2/3 271/2/3
f 275/2/3 274/2/3 273/2/3
f 276/2/3 274/2/3 275/2/3
f 279/2/3 278/2/3 277/2/3
f 280/2/3 278/2/3 279/2/3
f 283/2/3 282/2/3 281/2/3
f 284/2/3 282/2/3 283/2/3
f 287/2/3 286/2/3 285/2/3
f 288/2/3 286/2/3 287/2/3
f 291/2/3 290/2/3 289/2/3
f 292/2/3 290/2/3 291/2/3
f 295/2/3 294/2/3 293/2/3
f 296/2/3 294/2/3 295/2/3
f 299/2/3 298/2/3 297/2/3
f 300/2/3 298/2/3 299/2/3
f 303/2/3 302/2/3 301/2/3
f 304/2/3 302/2/3 303/2/3
f 307/2/3 306/2/3 305/2/3
f 308/2/3 306/2/3 307/2/3
f 311/2/3 310/2/3 309/2/3
f 312/2/3 310/2/3 311/2/3
f 313/2/4 314/2/4 315/2/4
f 315/2/4 314/2/4 316/2/4
f 317/2/4 318/2/4 319/2/4
f 319/2/4 318/2/4 320/2/4
f 321/2/4 322/2/4 323/2/4
f 323/2/4 322/2/4 324/2/4
f 325/2/4 326/2/4 327/2/4
f 327/2/4 326/2/4 328/2/4
f 329/2/4 330/2/4 331/2/4
f 331/2/4 330/2/4 332/2/4
f 333/2/4 334/2/4 335/2/4
f 335/2/4 334/2/4 336/2/4
f 337/2/4 338/2/4 339/2/4
f 339/2/4 338/2/4 340/2/4
f 341/2/4 342/2/4 343/2/4
f 343/2/4 342/2/4 344/2/4
f 345/2/4 346/2/4 347/2/4
f 347/2/4 346/2/4 348/2/4
f 349/2/4 350/2/4 351/2/4
f 351/2/4 350/2/4 352/2/4
f 353/2/4 354/2/4 355/2/4
f 355/2/4 354/2/4 356/2/4
f 357/2/4 358/2/4 359/2/4
f 359/2/4 358/2/4 360/2/4
f 361/2/4 362/2/4 363/2/4
f 363/2/4 362/2/4 364/2/4
f 365/2/4 366/2/4 367/2/4
f 367/2/4 366/2/4 368/2/4
f 369/2/4 370/2/4 371/2/4
f 371/2/4 370/2/4 372/2/4
f 373/2/4 374/2/4 375/2/4
f 375/2/4 374/2/4 376/2/4
f 377/2/4 378/2/4 379/2/4
f 379/2/4 378/2/4 380/2/4
f 381/2/4 382/2/4 383/2/4
f 383/2/4 382/2/4 384/2/4
f 385/2/4 386/2/4 387/2/4
f 387/2/4 386/2/4 388/2/4
f 389/2/4 390/2/4 391/2/4
f 391/2/4 390/2/4 392/2/4
f 393/2/4 394/2/4 395/2/4
f 395/2/4 394/2/4 396/2/4
f 397/2/4 398/2/4 399/2/4
f 399/2/4 398/2/4 400/2/4
f 401/2/4 402/2/4 403/2/4
f 403/2/4 402/2/4 404/2/4
f 405/2/4 406/2/4 407/2/4
f 407/2/4 406/2/4 408/2/4
f 409/4/4 410/4/4 411/4/4
f 411/4/4 410/4/4 412/4/4
f 409/4/4 411/4/4 413/4/4
f 412/4/4 410/4/4 414/4/4
f 409/4/4 413/4/4 415/4/4
f 413/4/4 414/4/4 415/4/4
f 414/4/4 410/4/4 416/4/4
f 415/4/4 414/4/4 416/4/4
f 419/4/5 418/4/5 417/4/5
f 420/4/5 418/4/5 419/4/5
f 423/4/5 422/4/5 421/4/5
f 424/4/5 422/4/5 423/4/5
f 425/4/5 422/4/5 424/4/5
f 426/4/5 422/4/5 425/4/5
f 427/4/5 422/4/5 426/4/5
f 428/4/5 422/4/5 427/4/5
f 429/4/5 422/4/5 428/4/5
f 430/4/5 422/4/5 429/4/5
f 431/4/5 422/4/5 430/4/5
f 432/4/5 422/4/5 431/4/5
f 433/4/5 422/4/5 432/4/5
f 434/4/5 422/4/5 433/4/5
f 435/4/5 423/4/5 421/4/5
f 436/4/5 423/4/5 435/4/5
f 437/4/5 425/4/5 424/4/5
f 438/4/5 425/4/5 437/4/5
f 439/4/5 425/4/5 438/4/5
f 440/4/5 425/4/5 439/4/5
f 441/4/5 427/4/5 426/4/5
f 442/4/5 427/4/5 441/4/5
f 443/4/5 427/4/5 442/4/5
f 444/4/5 427/4/5 443/4/5
f 445/4/5 429/4/5 428/4/5
f 446/4/5 429/4/5 445/4/5
f 447/4/5 429/4/5 446/4/5
f 448/4/5 429/4/5 447/4/5
f 449/4/5 431/4/5 430/4/5
f 450/4/5 431/4/5 449/4/5
f 451/4/5 431/4/5 450/4/5
f 452/4/5 431/4/5 451/4/5
f 453/4/5 433/4/5 432/4/5
f 454/4/5 433/4/5 453/4/5
f 455/4/5 433/4/5 454/4/5
f 456/4/5 433/4/5 455/4/5
f 457/4/5 422/4/5 434/4/5
f 458/4/5 422/4/5 457/4/5
f 471/4/5 460/4/5 459/4/5
f 472/4/5 460/4/5 471/4/5
f 473/4/5 462/4/5 461/4/5
f 474/4/5 462/4/5 473/4/5
f 475/4/5 464/4/5 463/4/5
f 476/4/5 464/4/5 475/4/5
f 477/4/5 466/4/5 465/4/5
f 478/4/5 466/4/5 477/4/5
f 479/4/5 468/4/5 467/4/5
f 480/4/5 468/4/5 479/4/5
f 481/4/5 470/4/5 469/4/5
f 482/4/5 470/4/5 481/4/5
f 483/4/5 435/4/5 421/4/5
f 486/4/5 439/4/5 438/4/5
f 487/4/5 439/4/5 486/4/5
f 490/4/5 443/4/5 442/4/5
f 491/4/5 443/4/5 490/4/5
f 494/4/5 447/4/5 446/4/5
f 495/4/5 447/4/5 494/4/5
f 498/4/5 451/4/5 450/4/5
f 499/4/5 451/4/5 498/4/5
f 502/4/5 455/4/5 454/4/5
f 503/4/5 455/4/5 502/4/5
f 506/4/5 422/4/5 458/4/5
f 507/4/5 484/4/5 483/4/5
f 508/4/5 488/4/5 487/4/5
f 508/4/5 486/4/5 485/4/5
f 508/4/5 487/4/5 486/4/5
f 509/4/5 488/4/5 508/4/5
f 510/4/5 492/4/5 491/4/5
f 510/4/5 490/4/5 489/4/5
f 510/4/5 491/4/5 490/4/5
f 511/4/5 492/4/5 510/4/5
f 512/4/5 496/4/5 495/4/5
f 512/4/5 494/4/5 493/4/5
f 512/4/5 495/4/5 494/4/5
f 513/4/5 496/4/5 512/4/5
f 514/4/5 500/4/5 499/4/5
f 514/4/5 498/4/5 497/4/5
f 514/4/5 499/4/5 498/4/5
f 515/4/5 500/4/5 514/4/5
f 516/4/5 503/4/5 502/4/5
f 516/4/5 504/4/5 503/4/5
f 516/4/5 502/4/5 501/4/5
f 517/4/5 504/4/5 516/4/5
f 518/4/5 506/4/5 505/4/5
f 519/4/5 515/4/5 514/4/5
f 519/4/5 518/4/5 517/4/5
f 519/4/5 513/4/5 512/4/5
f 519/4/5 511/4/5 510/4/5
f 519/4/5 516/4/5 515/4/5
f 519/4/5 514/4/5 513/4/5
f 519/4/5 509/4/5 508/4/5
f 519/4/5 517/4/5 516/4/5
f 519/4/5 507/4/5 483/4/5
f 519/4/5 512/4/5 511/4/5
f 519/4/5 483/4/5 421/4/5
f 519/4/5 508/4/5 507/4/5
f 519/4/5 510/4/5 509/4/5
f 520/4/5 506/4/5 518/4/5
f 520/4/5 518/4/5 519/4/5
f 520/4/5 422/4/5 506/4/5
f 521/4/6 522/4/6 523/4/6
f 523/4/6 522/4/6 524/4/6
f 524/4/6 522/4/6 525/4/6
f 525/4/6 522/4/6 526/4/6
f 526/4/6 522/4/6 527/4/6
f 527/4/6 522/4/6 528/4/6
f 528/4/6 522/4/6 529/4/6
f 529/4/6 522/4/6 530/4/6
f 530/4/6 522/4/6 531/4/6
f 531/4/6 522/4/6 532/4/6
f 532/4/6 522/4/6 533/4/6
f 533/4/6 522/4/6 534/4/6
f 521/4/6 523/4/6 535/4/6
f 535/4/6 523/4/6 536/4/6
f 524/4/6 525/4/6 537/4/6
f 537/4/6 525/4/6 538/4/6
f 538/4/6 525/4/6 539/4/6
f 539/4/6 525/4/6 540/4/6
f 526/4/6 527/4/6 541/4/6
f 541/4/6 527/4/6 542/4/6
f 542/4/6 527/4/6 543/4/6
f 543/4/6 527/4/6 544/4/6
f 528/4/6 529/4/6 545/4/6
f 545/4/6 529/4/6 546/4/6
f 546/4/6 529/4/6 547/4/6
f 547/4/6 529/4/6 548/4/6
f 530/4/6 531/4/6 549/4/6
f 549/4/6 531/4/6 550/4/6
f 550/4/6 531/4/6 551/4/6
f 551/4/6 531/4/6 552/4/6
f 532/4/6 533/4/6 553/4/6
f 553/4/6 533/4/6 554/4/6
f 554/4/6 533/4/6 555/4/6
f 555/4/6 533/4/6 556/4/6
f 534/4/6 522/4/6 557/4/6
f 557/4/6 522/4/6 558/4/6
f 559/4/6 560/4/6 571/4/6
f 571/4/6 560/4/6 572/4/6
f 561/4/6 562/4/6 573/4/6
f 573/4/6 562/4/6 574/4/6
f 563/4/6 564/4/6 575/4/6
f 575/4/6 564/4/6 576/4/6
f 565/4/6 566/4/6 577/4/6
f 577/4/6 566/4/6 578/4/6
f 567/4/6 568/4/6 579/4/6
f 579/4/6 568/4/6 580/4/6
f 569/4/6 570/4/6 581/4/6
f 581/4/6 570/4/6 582/4/6
f 521/4/6 535/4/6 583/4/6
f 538/4/6 539/4/6 586/4/6
f 586/4/6 539/4/6 587/4/6
f 542/4/6 543/4/6 590/4/6
f 590/4/6 543/4/6 591/4/6
f 546/4/6 547/4/6 594/4/6
f 594/4/6 547/4/6 595/4/6
f 550/4/6 551/4/6 598/4/6
f 598/4/6 551/4/6 599/4/6
f 554/4/6 555/4/6 602/4/6
f 602/4/6 555/4/6 603/4/6
f 558/4/6 522/4/6 606/4/6
f 583/4/6 584/4/6 607/4/6
f 587/4/6 588/4/6 608/4/6
f 585/4/6 586/4/6 608/4/6
f 586/4/6 587/4/6 608/4/6
f 608/4/6 588/4/6 609/4/6
f 591/4/6 592/4/6 610/4/6
f 589/4/6 590/4/6 610/4/6
f 590/4/6 591/4/6 610/4/6
f 610/4/6 592/4/6 611/4/6
f 595/4/6 596/4/6 612/4/6
f 593/4/6 594/4/6 612/4/6
f 594/4/6 595/4/6 612/4/6
f 612/4/6 596/4/6 613/4/6
f 599/4/6 600/4/6 614/4/6
f 597/4/6 598/4/6 614/4/6
f 598/4/6 599/4/6 614/4/6
f 614/4/6 600/4/6 615/4/6
f 602/4/6 603/4/6 616/4/6
f 603/4/6 604/4/6 616/4/6
f 601/4/6 602/4/6 616/4/6
f 616/4/6 604/4/6 617/4/6
f 605/4/6 606/4/6 618/4/6
f 614/4/6 615/4/6 619/4/6
f 617/4/6 618/4/6 619/4/6
f 612/4/6 613/4/6 619/4/6
f 610/4/6 611/4/6 619/4/6
f 615/4/6 616/4/6 619/4/6
f 613/4/6 614/4/6 619/4/6
f 608/4/6 609/4/6 619/4/6
f 616/4/6 617/4/6 619/4/6
f 583/4/6 607/4/6 619/4/6
f 611/4/6 612/4/6 619/4/6
f 521/4/6 583/4/6 619/4/6
f 607/4/6 608/4/6 619/4/6
f 609/4/6 610/4/6 619/4/6
f 618/4/6 606/4/6 620/4/6
f 619/4/6 618/4/6 620/4/6
f 606/4/6 522/4/6 620/4/6
f 621/4/6 622/4/6 623/4/6
f 623/4/6 622/4/6 624/4/6
